<svg width="25" height="25" viewBox="0 0 25 25" fill="none" xmlns="http://www.w3.org/2000/svg">
<path d="M11.5097 0.990397C11.5097 0.857137 11.5366 0.72937 11.585 0.612183C11.6356 0.490112 11.7091 0.380859 11.7998 0.29012C11.9789 0.110881 12.2267 0 12.4999 0C12.6338 0 12.7617 0.0268555 12.8789 0.0754801C12.8814 0.0764974 12.8836 0.0777181 12.8865 0.0789388C13.0053 0.129395 13.1117 0.201619 13.2004 0.290324C13.3796 0.46936 13.4905 0.717163 13.4905 0.990601C13.4905 0.996704 13.4901 1.00281 13.4893 1.00871V11.5108H23.9911C23.997 11.5102 24.0035 11.5096 24.0094 11.5096C24.1429 11.5096 24.2708 11.5365 24.388 11.5851C24.3909 11.5861 24.3931 11.5873 24.3956 11.5885C24.5144 11.639 24.6208 11.7112 24.7095 11.7999C24.8887 11.979 25 12.2268 25 12.5C25 12.6331 24.9729 12.761 24.9245 12.8782C24.8741 13.0003 24.8006 13.1095 24.7095 13.2003C24.6189 13.2908 24.5101 13.3643 24.388 13.4149V13.4151C24.2708 13.4635 24.1429 13.4904 24.0094 13.4904C24.0035 13.4904 23.997 13.49 23.9911 13.4892L13.4893 13.4894V23.9913C13.4901 23.9972 13.4905 24.0035 13.4905 24.0096C13.4905 24.1431 13.4634 24.2712 13.415 24.3882C13.4138 24.3911 13.4126 24.3933 13.4113 24.3958C13.3609 24.5146 13.2889 24.621 13.2004 24.7097C13.0207 24.8891 12.7731 25 12.4999 25C12.3668 25 12.2389 24.9731 12.1217 24.9245C11.9996 24.8741 11.8904 24.8006 11.7996 24.7097C11.7091 24.6193 11.6356 24.5103 11.585 24.3882H11.5848C11.5362 24.2712 11.5093 24.1431 11.5093 24.0096C11.5093 24.0035 11.5097 23.9972 11.5105 23.9913V13.4894H1.0087C1.0028 13.4902 0.996696 13.4906 0.990389 13.4906C0.857334 13.4906 0.729364 13.4637 0.612178 13.4151C0.490108 13.3647 0.380856 13.2912 0.290118 13.2003C0.199583 13.1097 0.126138 13.0009 0.0754795 12.8788C0.0268553 12.7616 0 12.6337 0 12.5C0 12.3667 0.0268553 12.239 0.0754795 12.1218C0.126138 11.9997 0.199583 11.8905 0.290322 11.7997C0.46956 11.6205 0.717157 11.5096 0.990593 11.5096C0.996899 11.5096 1.003 11.51 1.0089 11.5108H11.5109V1.00871C11.5101 1.0026 11.5097 0.996501 11.5097 0.990397Z" fill="white"/>
</svg>
