<svg width="40" height="40" viewBox="0 0 40 40" fill="none" xmlns="http://www.w3.org/2000/svg">
<path d="M6.2116 33.7884L6.21157 33.7884C2.68208 30.2592 0.5 25.3849 0.5 19.9997C0.5 14.6151 2.68208 9.74051 6.21157 6.21132L6.21158 6.2113C9.74076 2.68209 14.615 0.5 19.9998 0.5C25.3846 0.5 30.2589 2.68209 33.7884 6.21163L34.142 5.85807L33.7884 6.21164C37.3179 9.74084 39.5 14.6155 39.5 20C39.5 25.3852 37.3179 30.2592 33.7884 33.7884L34.142 34.1419L33.7884 33.7884C30.2589 37.3179 25.3846 39.5 19.9998 39.5C14.615 39.5 9.74077 37.3179 6.2116 33.7884ZM26.4471 12.5179L26.4472 12.5178C26.6754 12.2894 27.0458 12.2894 27.274 12.5178L27.2742 12.5179C27.5023 12.7461 27.5025 13.1165 27.274 13.3452L20.9718 19.6478L20.6183 20.0013L20.9718 20.3548L27.2741 26.6576L27.6277 26.304L27.2742 26.6576C27.5023 26.8858 27.5025 27.2561 27.274 27.4848C27.0458 27.7129 26.6753 27.7129 26.4471 27.4847L20.1444 21.1819L19.7908 20.8284L19.4373 21.1819L13.1346 27.485C12.9064 27.7132 12.5359 27.7132 12.3077 27.4851C12.0792 27.2565 12.0794 26.8861 12.3076 26.6579L18.6106 20.3552L18.9641 20.0016L18.6106 19.6481L12.3077 13.3452C12.0792 13.1165 12.0794 12.7461 12.3076 12.5179L12.3077 12.5178C12.5359 12.2894 12.9063 12.2894 13.1345 12.5178L13.1346 12.518L19.4376 18.8207L19.7912 19.1742L20.1447 18.8207L26.4471 12.5179ZM6.84643 33.5535L6.84646 33.5536C10.1681 36.8749 14.9453 38.9 19.9998 38.9C25.0543 38.9 29.8319 36.8749 33.1535 33.5536L32.8 33.2L33.1536 33.5536C36.4638 30.2433 38.9 25.0717 38.9 20.0016C38.9003 14.9475 36.8752 10.1682 33.5536 6.84645C30.2433 3.53614 25.0698 1.1 19.9998 1.1C14.9454 1.1 10.1681 3.12476 6.84645 6.44645C3.53614 9.75678 1.1 14.932 1.1 20.0016C1.1 25.0717 3.53655 30.2433 6.84643 33.5535Z" fill="white" stroke="white"/>
</svg>
