<svg width="40" height="40" viewBox="0 0 40 40" fill="none" xmlns="http://www.w3.org/2000/svg">
<path d="M18.7025 29.0557C18.6335 28.8897 18.5986 28.711 18.5986 28.5202C18.5986 28.3288 18.6331 28.1501 18.7025 27.9844C18.7708 27.8197 18.8737 27.669 19.0101 27.5323L19.0104 27.5317C19.1468 27.3949 19.2979 27.2927 19.4629 27.224C19.6289 27.1547 19.8079 27.1205 19.9987 27.1205C20.1911 27.1205 20.3704 27.1547 20.5365 27.224C20.6992 27.2914 20.848 27.392 20.9827 27.5248C20.9854 27.5274 20.988 27.5294 20.9899 27.5317C21.1263 27.6677 21.2288 27.8191 21.2975 27.9844C21.3669 28.1505 21.401 28.3292 21.401 28.5202C21.401 28.711 21.3669 28.8897 21.2975 29.0557C21.2288 29.2204 21.1266 29.3718 20.9899 29.5085C20.8529 29.6452 20.7008 29.7494 20.5348 29.8187C20.3691 29.888 20.1901 29.9229 19.9987 29.9229C19.8079 29.9229 19.6296 29.888 19.4642 29.8187C19.3021 29.7507 19.1527 29.6494 19.0179 29.516C19.0153 29.5134 19.0127 29.5108 19.0101 29.5085C18.8737 29.3721 18.7712 29.2211 18.7025 29.0557ZM20 1.68126C18.7324 1.68126 17.5033 1.8004 16.3132 2.03867C15.1214 2.27694 13.9717 2.63273 12.8652 3.10537L12.8656 3.10667C11.7409 3.59038 10.6937 4.15611 9.72559 4.80583C8.75553 5.45685 7.85579 6.19609 7.02897 7.02614L7.02572 7.02939C6.19564 7.85651 5.45638 8.75557 4.80534 9.72592C4.1556 10.694 3.59017 11.7412 3.10612 12.8658C3.10026 12.8795 3.09408 12.8925 3.08789 12.9058C2.6237 13.9999 2.27376 15.1362 2.03809 16.3133C1.7998 17.5033 1.68066 18.7325 1.68066 19.9997C1.68066 21.2675 1.7998 22.4963 2.03809 23.6864C2.27637 24.8778 2.63216 26.0278 3.10482 27.1342L3.10579 27.1336C3.58952 28.2582 4.15527 29.3054 4.80501 30.2734C5.45605 31.2434 6.19531 32.1432 7.02539 32.9696L7.02865 32.9729C7.85547 33.8033 8.75488 34.5425 9.72526 35.1935C10.6934 35.8426 11.7406 36.4083 12.8652 36.8924C12.8789 36.8982 12.8923 36.9044 12.9053 36.9109C13.9993 37.3751 15.1357 37.7247 16.3128 37.9607C17.5029 38.199 18.7321 38.3181 19.9997 38.3181C21.2673 38.3181 22.4964 38.1993 23.6862 37.9607C24.8779 37.7224 26.0273 37.3663 27.1344 36.894L27.1338 36.8927C28.2585 36.409 29.3057 35.8429 30.2738 35.1938C31.2435 34.5428 32.1432 33.8036 32.9701 32.9732L32.9733 32.97C33.8031 32.1435 34.5426 31.2438 35.1934 30.2738C35.8431 29.3054 36.4089 28.2585 36.8929 27.1339C36.8988 27.1205 36.9046 27.1072 36.9111 27.0945C37.3757 26.0005 37.7253 24.8634 37.9609 23.6867C38.1992 22.4967 38.3187 21.2675 38.3187 20C38.3187 18.7328 38.1995 17.5037 37.9609 16.3136C37.7227 15.1219 37.3669 13.9725 36.8942 12.8658L36.8932 12.8661C36.4095 11.7415 35.8434 10.6943 35.1937 9.72625C34.543 8.75623 33.8034 7.85684 32.9736 7.02972L32.9704 7.02646C32.1436 6.19674 31.2438 5.45718 30.2741 4.80616C29.3057 4.15644 28.2588 3.5907 27.1341 3.107C27.1208 3.10114 27.1074 3.09495 27.0941 3.08877C26 2.62459 24.8636 2.27467 23.6865 2.039C22.4967 1.8004 21.2676 1.68126 20 1.68126ZM15.985 0.390287C17.2845 0.130204 18.623 0 20 0C21.3766 0 22.7155 0.130204 24.015 0.390287C25.2962 0.646789 26.5423 1.03187 27.752 1.54552C27.7673 1.55106 27.7822 1.55692 27.7975 1.56343C29.0036 2.08229 30.1406 2.69815 31.2067 3.41363C32.2695 4.12682 33.2529 4.93506 34.1563 5.84096L34.1595 5.84421C35.0651 6.74718 35.8737 7.73087 36.5866 8.79366C37.3021 9.85938 37.918 10.9964 38.4369 12.2027L38.4359 12.2031L38.4369 12.206C38.9596 13.4289 39.3509 14.689 39.61 15.9848C39.8701 17.2843 40 18.6228 40 19.9997C40 21.3766 39.8701 22.7157 39.61 24.0145C39.3535 25.2957 38.9684 26.5418 38.4548 27.7514C38.4492 27.7667 38.4434 27.782 38.4365 27.7973C37.9176 29.0033 37.3021 30.14 36.5863 31.2063C35.8734 32.2688 35.0648 33.2522 34.1592 34.1558L34.1559 34.159C33.2529 35.0649 32.2692 35.8732 31.2064 36.5864C30.1406 37.3015 29.0033 37.9177 27.7972 38.4366L27.7965 38.4353L27.7936 38.4366C26.5706 38.959 25.3105 39.3503 24.0147 39.6097C22.7152 39.8698 21.3766 40 19.9997 40C18.6227 40 17.2839 39.8698 15.9847 39.6097C14.7038 39.3529 13.4577 38.9681 12.2477 38.4545C12.2324 38.4486 12.2174 38.4431 12.2021 38.4366C10.9958 37.9177 9.85905 37.3018 8.79297 36.5864C7.73047 35.8732 6.74674 35.0649 5.84375 34.159L5.84049 34.1558C4.93457 33.2525 4.1263 32.2688 3.41309 31.2063C2.69759 30.1403 2.08171 29.0033 1.56283 27.7973L1.56413 27.7966L1.56283 27.7934C1.04036 26.5708 0.649089 25.3107 0.389648 24.0145C0.130208 22.7151 0 21.3763 0 19.999C0 18.6224 0.130208 17.2836 0.390299 15.9842C0.64681 14.7033 1.0319 13.4572 1.54525 12.2476C1.55078 12.2323 1.55697 12.2174 1.56315 12.2021C2.08203 10.9957 2.69792 9.85873 3.41341 8.79301C4.1263 7.73054 4.9349 6.74685 5.84082 5.84356L5.84408 5.8403C6.74707 4.93441 7.73079 4.12617 8.79329 3.41297C9.85938 2.6975 10.9964 2.08164 12.2025 1.56277L12.2031 1.56375L12.2057 1.56277C13.429 1.04066 14.6891 0.649718 15.985 0.390287ZM20.8682 25.3312C20.8665 25.6606 20.6348 25.8683 20.3385 25.9575C20.2308 25.99 20.1149 26.0057 20 26.0057C19.8851 26.0057 19.7692 25.9897 19.6615 25.9575C19.3652 25.8686 19.1335 25.6606 19.1318 25.3312L18.0195 10.7877C18.0192 10.7845 18.0192 10.7809 18.0192 10.7776H18.0189C18.0189 10.4215 18.5495 10.2054 19.2282 10.1208C19.4723 10.0905 19.7363 10.0752 20 10.0752C20.2637 10.0752 20.5277 10.0905 20.7715 10.1208C21.4505 10.2054 21.9811 10.4215 21.9811 10.7776C21.9811 10.7835 21.9805 10.7894 21.9798 10.7949L20.8682 25.3312Z" fill="white"/>
</svg>
