<svg width="40" height="40" viewBox="0 0 40 40" fill="none" xmlns="http://www.w3.org/2000/svg">
<path d="M19.9998 0C25.5226 0 30.5225 2.23861 34.142 5.85775C37.7614 9.47689 40 14.4772 40 19.9997C40 25.5228 37.7614 30.5228 34.142 34.1419C30.5225 37.7611 25.5226 40 19.9998 40C14.4771 40 9.47714 37.7614 5.85803 34.1423C2.23891 30.5231 0 25.5228 0 19.9997C0 14.4772 2.23859 9.47689 5.85803 5.85775C9.47746 2.23861 14.4771 0 19.9998 0ZM11.2486 21.8682C10.8212 21.4814 10.788 20.8213 11.175 20.3939C11.5618 19.9665 12.2219 19.9333 12.6493 20.32L17.0246 24.2874L27.2924 13.5335C27.6905 13.1149 28.353 13.0986 28.7713 13.4964C29.1895 13.8945 29.2061 14.5566 28.808 14.9749L17.8361 26.4665L17.8348 26.4652C17.4458 26.8743 16.799 26.9007 16.3781 26.5199L11.2486 21.8682ZM33 7C29.7601 3.76042 24.9436 1.5 20 1.5C15.056 1.5 10.2396 3.76042 7 7C3.76012 10.2399 1.5 15.056 1.5 20C1.5 24.944 3.76044 29.7601 7 33C10.2396 36.2396 15.0559 38.5 19.9998 38.5C24.9435 38.5 29.2601 36.7396 32.5 33.5C35.7399 30.2601 38.5 24.9443 38.5 20C38.5003 15.0563 36.2399 10.2396 33 7Z" fill="white"/>
</svg>
