<svg width="20" height="20" viewBox="0 0 20 20" fill="none" xmlns="http://www.w3.org/2000/svg">
<path d="M8.06476 0C10.2918 0 12.3077 0.880211 13.7671 2.30339C15.2266 3.72657 16.1292 5.69256 16.1292 7.86428C16.1292 9.94909 15.2973 11.8439 13.9399 13.2513C13.9646 13.2691 13.9884 13.2888 14.011 13.3106L19.8168 18.9644C20.06 19.2003 20.0613 19.584 19.8192 19.8213C19.5773 20.0587 19.1837 20.0596 18.9406 19.8238L13.1347 14.17C13.0978 14.1342 13.0666 14.0951 13.0407 14.0536C11.6699 15.1029 9.94229 15.7287 8.06459 15.7287C5.83756 15.7287 3.82133 14.8485 2.36189 13.4253C0.902631 12.0022 0 10.036 0 7.86428C0 5.69256 0.902631 3.72657 2.36206 2.30339C3.82149 0.880374 5.83772 0 8.06476 0ZM12.8655 3.18279C11.6369 1.98471 9.93962 1.24366 8.06476 1.24366C6.1899 1.24366 4.49246 1.98471 3.26386 3.18279C2.03526 4.38087 1.27533 6.03599 1.27533 7.86428C1.27533 9.69257 2.03526 11.3479 3.26386 12.5459C4.49229 13.744 6.18973 14.4851 8.06476 14.4851C9.93962 14.4851 11.6369 13.744 12.8655 12.5459C14.0941 11.348 14.854 9.69274 14.854 7.86428C14.854 6.03599 14.0941 4.38087 12.8655 3.18279Z" fill="#F8F8F9"/>
</svg>
